<mxfile host="app.diagrams.net" agent="Mozilla/5.0 (Windows NT 10.0; Win64; x64; rv:135.0) Gecko/20100101 Firefox/135.0" version="26.0.16">
  <diagram name="Page-1" id="jyKlAJJ9NLUasiOqqjGp">
    <mxGraphModel dx="1219" dy="469" grid="1" gridSize="10" guides="1" tooltips="1" connect="1" arrows="1" fold="1" page="0" pageScale="1" pageWidth="850" pageHeight="1100" math="0" shadow="0">
      <root>
        <mxCell id="0" />
        <mxCell id="1" parent="0" />
        <mxCell id="ibCAYDNQj_hkH_2NKTYt-11" value="rr : Rovarasz" style="shape=umlLifeline;perimeter=lifelinePerimeter;whiteSpace=wrap;html=1;container=1;dropTarget=0;collapsible=0;recursiveResize=0;outlineConnect=0;portConstraint=eastwest;newEdgeStyle={&quot;curved&quot;:0,&quot;rounded&quot;:0};" parent="1" vertex="1">
          <mxGeometry x="80" y="160" width="100" height="320" as="geometry" />
        </mxCell>
        <mxCell id="ibCAYDNQj_hkH_2NKTYt-12" value="" style="html=1;points=[[0,0,0,0,5],[0,1,0,0,-5],[1,0,0,0,5],[1,1,0,0,-5]];perimeter=orthogonalPerimeter;outlineConnect=0;targetShapes=umlLifeline;portConstraint=eastwest;newEdgeStyle={&quot;curved&quot;:0,&quot;rounded&quot;:0};" parent="ibCAYDNQj_hkH_2NKTYt-11" vertex="1">
          <mxGeometry x="45" y="70" width="10" height="230" as="geometry" />
        </mxCell>
        <mxCell id="ibCAYDNQj_hkH_2NKTYt-48" value="" style="html=1;points=[[0,0,0,0,5],[0,1,0,0,-5],[1,0,0,0,5],[1,1,0,0,-5]];perimeter=orthogonalPerimeter;outlineConnect=0;targetShapes=umlLifeline;portConstraint=eastwest;newEdgeStyle={&quot;curved&quot;:0,&quot;rounded&quot;:0};" parent="ibCAYDNQj_hkH_2NKTYt-11" vertex="1">
          <mxGeometry x="55" y="164.99" width="10" height="40" as="geometry" />
        </mxCell>
        <mxCell id="ibCAYDNQj_hkH_2NKTYt-49" value="HatasAkt()" style="html=1;align=left;spacingLeft=2;endArrow=block;rounded=0;edgeStyle=orthogonalEdgeStyle;curved=0;rounded=0;" parent="ibCAYDNQj_hkH_2NKTYt-11" source="ibCAYDNQj_hkH_2NKTYt-12" target="ibCAYDNQj_hkH_2NKTYt-48" edge="1">
          <mxGeometry relative="1" as="geometry">
            <mxPoint x="60" y="155.01857142857136" as="sourcePoint" />
            <Array as="points">
              <mxPoint x="90" y="155" />
              <mxPoint x="90" y="185" />
            </Array>
          </mxGeometry>
        </mxCell>
        <mxCell id="ibCAYDNQj_hkH_2NKTYt-14" value="te : TektonElem" style="shape=umlLifeline;perimeter=lifelinePerimeter;whiteSpace=wrap;html=1;container=1;dropTarget=0;collapsible=0;recursiveResize=0;outlineConnect=0;portConstraint=eastwest;newEdgeStyle={&quot;curved&quot;:0,&quot;rounded&quot;:0};" parent="1" vertex="1">
          <mxGeometry x="320" y="160" width="100" height="320" as="geometry" />
        </mxCell>
        <mxCell id="ibCAYDNQj_hkH_2NKTYt-27" value="" style="html=1;points=[[0,0,0,0,5],[0,1,0,0,-5],[1,0,0,0,5],[1,1,0,0,-5]];perimeter=orthogonalPerimeter;outlineConnect=0;targetShapes=umlLifeline;portConstraint=eastwest;newEdgeStyle={&quot;curved&quot;:0,&quot;rounded&quot;:0};" parent="ibCAYDNQj_hkH_2NKTYt-14" vertex="1">
          <mxGeometry x="45" y="90" width="10" height="40" as="geometry" />
        </mxCell>
        <mxCell id="0kth3Wh-JGqOLsZOFluv-5" value="" style="html=1;points=[[0,0,0,0,5],[0,1,0,0,-5],[1,0,0,0,5],[1,1,0,0,-5]];perimeter=orthogonalPerimeter;outlineConnect=0;targetShapes=umlLifeline;portConstraint=eastwest;newEdgeStyle={&quot;curved&quot;:0,&quot;rounded&quot;:0};" vertex="1" parent="ibCAYDNQj_hkH_2NKTYt-14">
          <mxGeometry x="45" y="210" width="10" height="30" as="geometry" />
        </mxCell>
        <mxCell id="ibCAYDNQj_hkH_2NKTYt-28" value="GetPlaceable(mit)" style="html=1;verticalAlign=bottom;endArrow=block;curved=0;rounded=0;" parent="1" edge="1">
          <mxGeometry relative="1" as="geometry">
            <mxPoint x="135" y="250" as="sourcePoint" />
            <mxPoint x="365" y="250" as="targetPoint" />
          </mxGeometry>
        </mxCell>
        <mxCell id="ibCAYDNQj_hkH_2NKTYt-33" value="s : Spora" style="shape=umlLifeline;perimeter=lifelinePerimeter;whiteSpace=wrap;html=1;container=1;dropTarget=0;collapsible=0;recursiveResize=0;outlineConnect=0;portConstraint=eastwest;newEdgeStyle={&quot;curved&quot;:0,&quot;rounded&quot;:0};" parent="1" vertex="1">
          <mxGeometry x="200" y="160" width="100" height="240" as="geometry" />
        </mxCell>
        <mxCell id="ibCAYDNQj_hkH_2NKTYt-50" value="" style="html=1;verticalAlign=bottom;endArrow=open;dashed=1;endSize=8;curved=0;rounded=0;" parent="1" edge="1">
          <mxGeometry relative="1" as="geometry">
            <mxPoint x="365" y="290" as="sourcePoint" />
            <mxPoint x="135" y="290" as="targetPoint" />
          </mxGeometry>
        </mxCell>
        <mxCell id="0kth3Wh-JGqOLsZOFluv-1" value="Játékos" style="shape=umlLifeline;perimeter=lifelinePerimeter;whiteSpace=wrap;html=1;container=1;dropTarget=0;collapsible=0;recursiveResize=0;outlineConnect=0;portConstraint=eastwest;newEdgeStyle={&quot;curved&quot;:0,&quot;rounded&quot;:0};participant=umlActor;" vertex="1" parent="1">
          <mxGeometry x="-10" y="160" width="20" height="320" as="geometry" />
        </mxCell>
        <mxCell id="0kth3Wh-JGqOLsZOFluv-3" value="" style="html=1;points=[[0,0,0,0,5],[0,1,0,0,-5],[1,0,0,0,5],[1,1,0,0,-5]];perimeter=orthogonalPerimeter;outlineConnect=0;targetShapes=umlLifeline;portConstraint=eastwest;newEdgeStyle={&quot;curved&quot;:0,&quot;rounded&quot;:0};" vertex="1" parent="0kth3Wh-JGqOLsZOFluv-1">
          <mxGeometry x="5" y="50" width="10" height="260" as="geometry" />
        </mxCell>
        <mxCell id="0kth3Wh-JGqOLsZOFluv-4" value="Egyel()" style="html=1;verticalAlign=bottom;endArrow=block;curved=0;rounded=0;" edge="1" parent="1">
          <mxGeometry width="80" relative="1" as="geometry">
            <mxPoint x="5" y="230" as="sourcePoint" />
            <mxPoint x="125" y="230" as="targetPoint" />
          </mxGeometry>
        </mxCell>
        <mxCell id="0kth3Wh-JGqOLsZOFluv-6" value="RemovePlaceable(s)" style="html=1;verticalAlign=bottom;endArrow=block;curved=0;rounded=0;entryX=0;entryY=0;entryDx=0;entryDy=5;" edge="1" target="0kth3Wh-JGqOLsZOFluv-5" parent="1" source="ibCAYDNQj_hkH_2NKTYt-12">
          <mxGeometry x="-0.0012" relative="1" as="geometry">
            <mxPoint x="295" y="365" as="sourcePoint" />
            <mxPoint as="offset" />
          </mxGeometry>
        </mxCell>
        <mxCell id="0kth3Wh-JGqOLsZOFluv-8" value="opt" style="shape=umlFrame;whiteSpace=wrap;html=1;pointerEvents=0;" vertex="1" parent="1">
          <mxGeometry x="40" y="300" width="380" height="170" as="geometry" />
        </mxCell>
        <mxCell id="0kth3Wh-JGqOLsZOFluv-9" value="[ha van spóra]" style="text;html=1;align=center;verticalAlign=middle;resizable=0;points=[];autosize=1;strokeColor=none;fillColor=none;" vertex="1" parent="1">
          <mxGeometry x="32" y="338" width="100" height="30" as="geometry" />
        </mxCell>
        <mxCell id="0kth3Wh-JGqOLsZOFluv-10" value="" style="shape=umlDestroy;whiteSpace=wrap;html=1;strokeWidth=3;targetShapes=umlLifeline;" vertex="1" parent="1">
          <mxGeometry x="235" y="385" width="30" height="30" as="geometry" />
        </mxCell>
      </root>
    </mxGraphModel>
  </diagram>
</mxfile>
